<svg xmlns="http://www.w3.org/2000/svg" width="2282" height="640"><defs><linearGradient id="a" x1="50%" x2="50%" y1="0%" y2="100%"><stop offset="0%" stop-color="#C2C2C2"/><stop offset="100%" stop-color="#FFF"/></linearGradient></defs><g fill="none" fill-rule="evenodd"><path fill="url(#a)" opacity=".2" d="M0 0h2282v640H0z"/><path fill="#FFF" fill-opacity=".8" d="M1358.89-258.27c130.966-35.092 262.802 32.25 294.464 150.413 31.661 118.163-48.84 242.4-179.807 277.493-40.583 10.874-81.25 11.912-118.994 4.65-23.665 33.034-58.27 58.286-100.293 69.546a181.252 181.252 0 01-30.627 5.455c21.743-37.602 29.525-83.557 18.463-129.237-29.928-26.39-52.253-60.675-63.012-100.827-31.661-118.163 48.84-242.4 179.807-277.493zM795.98 19.666L830.32 7.93C855.065-.525 868.596-1.576 882.14.54c13.543 2.117 25.632 7.9 35.778 17.117 10.146 9.217 17.82 20.412 26.763 44.983l21.619 59.401.176-.063a96.379 96.379 0 001.877 5.701c12.409 34.093 42.318 56.76 75.903 61.56-9.472 14.27-23.43 25.746-40.765 32.056l-.944.334.004.008-98.281 35.771c-31.279 11.385-43.8 12.28-57.468 10.361-13.668-1.917-25.926-7.577-36.25-16.735-10.325-9.159-17.767-19.27-29.39-50.46l-31.208-83.749c-14.464-38.814 5.276-82.004 44.09-96.468.642-.24 1.288-.47 1.937-.691z"/><path stroke="#000" stroke-linecap="round" stroke-linejoin="round" stroke-opacity=".08" d="M805.98 29.666L840.32 17.93c24.744-8.455 38.275-9.506 51.818-7.39 13.543 2.117 25.632 7.9 35.778 17.117 10.146 9.217 17.82 20.412 26.763 44.983l21.619 59.401.176-.063a96.379 96.379 0 001.877 5.701c12.409 34.093 42.318 56.76 75.903 61.56-9.472 14.27-23.43 25.746-40.765 32.056l-.944.334.004.008-98.281 35.771c-31.279 11.385-43.8 12.28-57.468 10.361-13.668-1.917-25.926-7.577-36.25-16.735-10.325-9.159-17.767-19.27-29.39-50.46l-31.208-83.749c-14.464-38.814 5.276-82.004 44.09-96.468.642-.24 1.288-.47 1.937-.691zM2246.828-350.495c8.387 9.36 13.584 20.506 15.363 32.946 1.78 12.44.986 23.849-9.382 52.332l-44.002 120.897c-10.368 28.484-17.093 37.733-26.452 46.12-9.359 8.386-20.506 13.584-32.946 15.363-12.316 1.76-23.62 1-51.483-9.074l-231.473-84.25-.356.956c-14.205 37.143-55.638 56.152-93.144 42.501l.078.027c14.05-19.572 25.739-41.322 34.51-64.99l.293.105 73.797-202.753c10.367-28.483 17.092-37.733 26.451-46.119 9.36-8.386 20.506-13.584 32.946-15.363 12.316-1.761 23.62-1 51.483 9.074l208.198 75.777c28.484 10.367 37.733 17.092 46.12 26.451z"/><path fill="#FFF" fill-opacity=".8" d="M1959.76 366.531c97.24-20.669 159.311-116.252 138.643-213.49C2077.734 55.8 1982.15-6.272 1884.912 14.397l1.407-.287-.056-.263-5.873 1.298c-101.556 23.314-183.581 87.292-232.508 171.027l96.11-20.43c-2.793 20.143-2.195 41.106 2.278 62.146 20.668 97.238 116.251 159.31 213.49 138.642z"/><path stroke="#000" stroke-linecap="round" stroke-linejoin="round" stroke-opacity=".08" d="M1963.903 386.757c97.238-20.668 159.31-116.251 138.642-213.49-20.669-97.24-116.252-159.311-213.49-138.643a182.295 182.295 0 00-15.804 4.105c-97.138 25.05-175.56 87.61-222.941 168.7l97.731-20.774c-2.686 19.933-2.05 40.658 2.37 61.46 20.67 97.239 116.253 159.311 213.492 138.642zM1376.39-250.27c130.7-35.02 262.319 32.38 293.98 150.542 31.662 118.163-48.624 242.343-179.323 277.364-40.934 10.968-81.958 11.89-119.973 4.352-23.956 33.204-58.985 58.636-101.496 70.027a184.677 184.677 0 01-30.912 5.531c22.53-38.54 30.344-85.79 18.148-132.496-28.28-25.993-49.376-59.252-59.747-97.956C1165.405-91.07 1245.69-215.25 1376.39-250.27z"/><path fill="#FFF" fill-opacity=".8" d="M244.965 415.217c-134.99-43.861-208.589-189.7-164.387-325.741a262.604 262.604 0 0117.567-41.575c70.409-152.047 244.198-231.127 406.62-178.353 56.279 18.286 104.358 50.183 141.813 90.9-45.453-2.033-89.565 13.489-123.725 42.145 54.53 65.919 75.115 157.861 46.568 245.718-44.202 136.04-189.466 210.767-324.456 166.906z"/><path stroke="#000" stroke-linecap="round" stroke-linejoin="round" stroke-opacity=".08" d="M258.964 431.217c-135.516-44.031-209.54-190.01-165.337-326.05a261.426 261.426 0 0118.9-44.03c71.116-149.847 244.267-227.19 406.41-174.507 56.506 18.36 104.812 50.281 142.477 90.982-45.47-2.115-89.565 13.179-123.737 41.53 54.56 65.978 75.186 157.792 46.695 245.478-44.202 136.04-189.893 210.629-325.408 166.597z"/><path fill="#DADCDC" fill-opacity=".4" d="M394.767-113.863c-68.146-23.464-142.412 12.757-165.876 80.904-23.465 68.146 12.757 142.412 80.903 165.877l-.616-.218-.085.242 4.134 1.386c71.807 23.433 146.628 14.4 208.24-19.213l-67.813-23.35c9.362-11.539 16.898-24.885 22.017-39.75 23.465-68.147-12.757-142.413-80.904-165.878z"/><path stroke="#000" stroke-linecap="round" stroke-linejoin="round" stroke-opacity=".08" d="M379.183-113.863c-68.147-23.464-142.412 12.757-165.877 80.904-23.465 68.146 12.757 142.412 80.904 165.877 1.88.647 3.765 1.25 5.654 1.806l-1.221-.396c71.806 23.433 146.628 14.4 208.24-19.213l-68.596-23.62c9.262-11.476 16.72-24.73 21.8-39.48 23.464-68.147-12.757-142.413-80.904-165.878z"/><path fill="#DADCDC" fill-opacity=".4" d="M786.863-308.121c21.47-135.553 169.766-224.71 331.23-199.136a353.681 353.681 0 0148.355 11.162C1325.435-448.13 1429.329-296 1403.995-136.044c-13.64 86.112-62.197 158.493-130.028 206.423 14.522-20.858 24.678-45.258 28.925-72.071 4.476-28.26 1.88-56.001-6.474-81.405-62.896 54.912-157.006 82.411-256.073 66.72C878.88-41.95 765.393-172.567 786.863-308.12z"/><path stroke="#000" stroke-linecap="round" stroke-linejoin="round" stroke-opacity=".08" d="M808.863-315.121c21.47-135.553 169.766-224.71 331.23-199.136a353.681 353.681 0 0148.355 11.162C1347.435-455.13 1451.329-303 1425.995-143.044c-13.64 86.112-62.197 158.493-130.028 206.423 14.522-20.858 24.678-45.258 28.925-72.071 4.476-28.26 1.88-56.001-6.474-81.405-62.896 54.912-157.006 82.411-256.073 66.72C900.88-48.95 787.393-179.567 808.863-315.12z"/></g></svg>